<?xml version="1.0" standalone="no"?>
<!DOCTYPE svg PUBLIC "-//W3C//DTD SVG 20010904//EN"
 "http://www.w3.org/TR/2001/REC-SVG-20010904/DTD/svg10.dtd">
<svg version="1.0" xmlns="http://www.w3.org/2000/svg"
 width="1080.000000pt" height="1080.000000pt" viewBox="0 0 1080.000000 1080.000000"
 preserveAspectRatio="xMidYMid meet">

<g transform="translate(0.000000,1080.000000) scale(0.100000,-0.100000)"
fill="#000000" stroke="none">
<path d="M0 5400 l0 -5400 5400 0 5400 0 0 5400 0 5400 -5400 0 -5400 0 0
-5400z m2590 983 c1 -254 5 -380 14 -433 37 -205 140 -300 328 -300 l68 0 0
545 0 546 158 -3 157 -3 3 -542 2 -543 200 0 200 0 0 545 0 545 160 0 160 0 0
-635 0 -635 -658 0 c-619 0 -663 1 -735 19 -149 39 -233 105 -297 234 -65 132
-71 181 -77 609 -3 208 -3 384 1 393 4 12 31 15 161 15 l155 0 0 -357z m3130
198 l0 -160 263 -3 c307 -5 330 -10 412 -92 80 -80 90 -123 90 -381 0 -180 -3
-218 -19 -268 -25 -75 -88 -146 -158 -178 -53 -24 -54 -24 -480 -27 l-428 -3
0 636 0 635 160 0 160 0 0 -159z m-720 -171 c92 -14 187 -64 225 -118 28 -41
30 -50 33 -150 3 -101 2 -110 -25 -162 -22 -43 -40 -62 -82 -87 -77 -46 -131
-55 -376 -62 -239 -7 -256 -11 -275 -65 -13 -39 5 -76 50 -98 31 -16 71 -18
371 -18 185 0 338 -2 340 -4 2 -2 3 -43 1 -91 l-4 -86 -416 3 c-404 3 -419 4
-477 26 -80 30 -124 67 -157 132 l-28 54 0 270 c0 241 2 275 19 311 34 75 111
128 208 145 70 11 517 12 593 0z m-1500 -1169 l0 -90 -337 -3 c-318 -3 -341
-4 -383 -24 -54 -25 -114 -89 -140 -148 -39 -92 -56 -250 -40 -383 18 -159 71
-263 160 -313 43 -24 54 -25 233 -28 l187 -4 0 176 0 176 -135 0 -135 0 0 95
0 95 295 0 295 0 0 -365 0 -365 -372 0 c-411 0 -466 5 -575 55 -129 59 -209
165 -255 334 -31 113 -30 382 1 496 42 158 118 264 229 323 107 57 137 60 575
61 l397 1 0 -89z m452 -393 c3 -462 4 -484 23 -517 25 -42 79 -71 148 -80 l52
-6 3 -94 3 -93 -153 4 c-141 4 -158 6 -213 32 -73 33 -109 66 -140 126 -42 83
-45 127 -45 630 l0 480 160 0 159 0 3 -482z m1908 328 l0 -154 253 -4 c214 -4
260 -8 307 -24 76 -26 150 -99 181 -179 21 -56 23 -75 23 -270 1 -195 -1 -215
-22 -278 -30 -84 -88 -146 -170 -179 -56 -23 -61 -23 -477 -23 l-420 0 -3 633
-2 632 165 0 165 0 0 -154z m2440 -318 c0 -440 2 -476 19 -514 24 -52 72 -82
148 -92 l58 -7 3 -94 3 -93 -148 4 c-186 6 -237 21 -309 93 -90 90 -88 74 -92
663 l-3 512 161 0 160 0 0 -472z m-3073 133 c67 -30 125 -93 149 -162 17 -47
19 -85 19 -294 0 -231 -1 -242 -24 -292 -31 -69 -102 -135 -172 -159 -48 -17
-85 -19 -349 -19 l-295 0 -63 29 c-74 34 -128 91 -156 162 -16 40 -20 84 -24
239 -5 219 5 297 49 373 46 81 125 128 244 145 17 3 152 4 300 3 259 -2 272
-3 322 -25z m2311 19 c152 -19 239 -67 283 -157 24 -48 24 -51 27 -421 l3
-373 -418 3 c-403 4 -421 5 -486 27 -134 44 -187 119 -187 266 0 107 17 152
78 207 72 65 141 80 402 87 146 4 232 10 246 18 12 7 27 26 34 42 17 43 2 82
-41 103 -30 16 -70 18 -376 18 l-343 0 0 95 0 95 348 0 c191 0 385 -5 430 -10z"/>
<path d="M5720 5945 l0 -295 138 0 c202 0 276 29 302 121 13 45 13 304 0 351
-14 49 -70 94 -132 108 -27 5 -107 10 -178 10 l-130 0 0 -295z"/>
<path d="M4550 6222 c-47 -23 -60 -53 -60 -139 l0 -73 173 0 c190 0 236 8 267
47 25 32 27 99 4 132 -29 41 -72 51 -216 51 -107 0 -140 -3 -168 -18z"/>
<path d="M5860 4541 l0 -291 153 0 c139 0 157 2 197 23 25 12 55 38 68 57 22
34 23 41 20 217 -3 205 -7 217 -84 257 -34 18 -61 21 -196 24 l-158 4 0 -291z"/>
<path d="M4746 4816 c-51 -19 -94 -62 -106 -105 -5 -20 -10 -101 -10 -181 0
-171 13 -212 76 -251 35 -22 50 -24 149 -24 124 0 157 11 197 67 21 31 23 44
26 200 3 149 1 172 -17 212 -28 64 -79 89 -191 93 -57 2 -98 -1 -124 -11z"/>
<path d="M7150 4460 c-49 -12 -70 -42 -70 -100 0 -104 14 -110 260 -110 l190
0 0 110 0 110 -172 -1 c-95 -1 -189 -5 -208 -9z"/>
</g>
</svg>
